<svg width="467" height="350" viewBox="0 0 467 350" fill="none" xmlns="http://www.w3.org/2000/svg">
<path d="M53.6801 341.762C53.6801 341.762 28.9101 289.002 34.2901 287.482C39.6701 285.962 50.9501 294.362 50.9501 294.362C50.9501 294.362 17.8501 205.662 26.4201 198.782C34.9901 191.902 50.9901 227.112 50.9901 227.112C50.9901 227.112 33.9001 172.782 35.9101 152.112C37.9201 131.442 59.6301 151.352 59.6301 151.352C59.6301 151.352 42.2401 77.182 58.3901 73.352C74.5401 69.522 74.0001 158.222 74.0001 158.222C74.0001 158.222 79.3 94.752 85.7701 112.342C92.2401 129.932 78.6401 188.802 78.6401 188.802C78.6401 188.802 87.5101 168.922 92.4401 187.272C97.3701 205.622 82.6401 279.792 82.6401 279.792C82.6401 279.792 95.1601 267.562 96.3301 282.852C97.5001 298.142 70.4101 345.552 70.4101 345.552L55.0801 347.112L53.6801 341.762Z" fill="#579540"/>
<path opacity="0.6" d="M53.6801 341.762C53.6801 341.762 28.9101 289.002 34.2901 287.482C39.6701 285.962 50.9501 294.362 50.9501 294.362C50.9501 294.362 17.8501 205.662 26.4201 198.782C34.9901 191.902 50.9901 227.112 50.9901 227.112C50.9901 227.112 33.9001 172.782 35.9101 152.112C37.9201 131.442 59.6301 151.352 59.6301 151.352C59.6301 151.352 42.2401 77.182 58.3901 73.352C74.5401 69.522 74.0001 158.222 74.0001 158.222C74.0001 158.222 79.3 94.752 85.7701 112.342C92.2401 129.932 78.6401 188.802 78.6401 188.802C78.6401 188.802 87.5101 168.922 92.4401 187.272C97.3701 205.622 82.6401 279.792 82.6401 279.792C82.6401 279.792 95.1601 267.562 96.3301 282.852C97.5001 298.142 70.4101 345.552 70.4101 345.552L55.0801 347.112L53.6801 341.762Z" fill="white"/>
<path d="M58.9601 344.112C58.9601 344.112 38.3201 307.412 42.1401 300.522C45.9601 293.632 57.4301 309.702 57.4301 309.702C57.4301 309.702 31.4301 244.702 35.2601 238.592C39.0901 232.482 51.3201 259.242 51.3201 259.242C51.3201 259.242 46.7501 169.732 54.3701 172.782C61.9901 175.832 62.7501 218.662 62.7501 218.662C62.7501 218.662 58.1701 116.972 65.0501 120.032C71.9301 123.092 71.1701 236.252 71.1701 236.252C71.1701 236.252 84.9301 192.662 87.1701 212.542C89.4101 232.422 69.5901 285.952 69.5901 285.952C69.5901 285.952 88.7501 243.892 91.0801 266.112C93.4101 288.332 75.7501 329.532 75.7501 329.532C75.7501 329.532 82.6301 312.712 82.6301 321.882C82.6301 331.052 77.2801 342.532 77.2801 342.532" stroke="#263238" stroke-linecap="round" stroke-linejoin="round"/>
<path d="M33.1798 300.572L20.0098 343.972H55.6798L69.2498 300.802L33.1798 300.572Z" fill="#263238" stroke="#263238" stroke-linecap="round" stroke-linejoin="round"/>
<path d="M116.35 343.902H42.0197L33.1797 300.572H107.51L116.35 343.902Z" fill="white" stroke="#263238" stroke-linecap="round" stroke-linejoin="round"/>
<path d="M108.69 336.572H46.6896L42.0596 313.902H104.06L108.69 336.572Z" stroke="#263238" stroke-linecap="round" stroke-linejoin="round"/>
<path d="M47.3896 313.992L51.9797 336.472" stroke="#263238" stroke-linecap="round" stroke-linejoin="round"/>
<path d="M53.0801 313.992L57.6701 336.472" stroke="#263238" stroke-linecap="round" stroke-linejoin="round"/>
<path d="M58.7695 313.992L63.3595 336.472" stroke="#263238" stroke-linecap="round" stroke-linejoin="round"/>
<path d="M64.4502 313.992L69.0402 336.472" stroke="#263238" stroke-linecap="round" stroke-linejoin="round"/>
<path d="M70.1396 313.992L74.7297 336.472" stroke="#263238" stroke-linecap="round" stroke-linejoin="round"/>
<path d="M75.8301 313.992L80.4201 336.472" stroke="#263238" stroke-linecap="round" stroke-linejoin="round"/>
<path d="M81.5098 313.992L86.0998 336.472" stroke="#263238" stroke-linecap="round" stroke-linejoin="round"/>
<path d="M87.2002 313.992L91.7902 336.472" stroke="#263238" stroke-linecap="round" stroke-linejoin="round"/>
<path d="M92.8799 313.992L97.4699 336.472" stroke="#263238" stroke-linecap="round" stroke-linejoin="round"/>
<path d="M98.5693 313.992L103.159 336.472" stroke="#263238" stroke-linecap="round" stroke-linejoin="round"/>
<path d="M43.1201 318.382H104.77" stroke="#263238" stroke-linecap="round" stroke-linejoin="round"/>
<path d="M44.04 322.902H105.69" stroke="#263238" stroke-linecap="round" stroke-linejoin="round"/>
<path d="M44.9697 327.432H106.61" stroke="#263238" stroke-linecap="round" stroke-linejoin="round"/>
<path d="M45.8896 331.952H107.54" stroke="#263238" stroke-linecap="round" stroke-linejoin="round"/>
<path d="M69.0696 309.982H41.5396L41.0996 307.782H68.6196L69.0696 309.982Z" fill="#263238"/>
<path d="M444.751 233.112H355.091C350.872 233.212 346.827 234.817 343.688 237.638C340.548 240.458 338.521 244.308 337.971 248.492L326.971 345.722H431.971L444.751 233.112Z" fill="white" stroke="#263238" stroke-linecap="round" stroke-linejoin="round"/>
<path d="M445.22 233.113C441.715 233.195 438.355 234.529 435.747 236.873C433.139 239.216 431.455 242.416 431 245.893L419.69 345.723H445.23L456.55 245.893C456.784 244.283 456.663 242.643 456.197 241.085C455.731 239.527 454.93 238.089 453.852 236.873C452.773 235.656 451.442 234.689 449.951 234.04C448.46 233.39 446.846 233.074 445.22 233.113Z" fill="#263238" stroke="#263238" stroke-linecap="round" stroke-linejoin="round"/>
<path d="M326.04 203.903C319.739 208.402 312.929 212.141 305.75 215.043C293.02 220.343 287.9 221.943 287.9 221.943L291.43 343.743H383.85C383.85 343.743 372 267.373 372 241.743C372 216.113 373.06 211.113 373.06 211.113L342.66 203.333L326.04 203.903Z" fill="#579540" stroke="#263238" stroke-linecap="round" stroke-linejoin="round"/>
<path d="M315.96 209.032C313.079 229.719 311.369 250.552 310.84 271.432C310.31 302.722 316.32 344.432 316.32 344.432H248.61C257.03 328.504 263.052 311.42 266.48 293.732C271.48 268.402 275.48 225.462 276.54 224.932C277.6 224.402 313.49 211.112 315.96 209.032Z" fill="#263238" stroke="#263238" stroke-linecap="round" stroke-linejoin="round"/>
<path d="M285.21 344.442C285.21 344.442 278.31 297.772 278.66 286.812C279.01 275.852 280.75 238.732 280.75 238.732" stroke="#616161" stroke-linecap="round" stroke-linejoin="round"/>
<path d="M353.971 205.853C353.971 205.853 345.311 245.623 344.601 278.333C343.891 311.043 341.601 344.623 341.601 344.623H396.351C396.351 344.623 397.061 314.743 396.351 304.493C395.641 294.243 395.641 296.363 395.641 296.363L416.861 301.843C416.861 301.843 403.241 236.253 400.771 229.013C398.301 221.773 399.531 219.463 397.941 218.223C396.351 216.983 353.971 205.853 353.971 205.853Z" fill="#263238" stroke="#263238" stroke-linecap="round" stroke-linejoin="round"/>
<path d="M255.081 317.402C256.508 319.59 258.186 321.604 260.081 323.402C262.511 325.482 267.721 324.402 270.491 327.242C273.261 330.082 270.231 338.752 266.731 341.782C260.731 346.952 263.911 331.262 263.911 331.262C261.795 332.713 259.458 333.81 256.991 334.512C253.591 335.292 244.841 332.632 241.911 332.512C238.981 332.392 234.911 331.832 233.351 328.572C231.791 325.312 241.471 321.382 245.771 319.822C248.808 318.78 251.921 317.971 255.081 317.402Z" fill="white" stroke="#263238" stroke-linecap="round" stroke-linejoin="round"/>
<path d="M236.561 322.002C235.636 321.756 234.659 321.785 233.751 322.087C232.843 322.39 232.043 322.951 231.451 323.702C229.451 326.332 225.451 338.212 226.621 340.502C227.791 342.792 230.821 339.582 232.261 335.812C232.875 333.996 233.693 332.254 234.701 330.622C234.701 330.622 236.281 331.392 237.391 329.332C238.501 327.272 239.621 324.182 236.561 322.002Z" fill="white" stroke="#263238" stroke-linecap="round" stroke-linejoin="round"/>
<path d="M242.22 319.932C241.251 319.375 240.119 319.17 239.017 319.352C237.914 319.534 236.908 320.093 236.17 320.932C233.36 323.932 235.29 336.542 236.78 340.402C238.27 344.262 241.09 343.782 241.51 341.402C241.93 339.022 242.41 327.152 242.56 324.402C242.684 322.904 242.569 321.395 242.22 319.932Z" fill="white" stroke="#263238" stroke-linecap="round" stroke-linejoin="round"/>
<path d="M248.221 318.573C247.264 317.971 246.121 317.74 245.006 317.924C243.891 318.108 242.882 318.695 242.171 319.573C239.381 322.743 241.441 336.083 242.971 340.183C244.501 344.283 247.321 343.803 247.721 341.253C248.121 338.703 248.481 326.173 248.601 323.253C248.703 321.682 248.575 320.106 248.221 318.573Z" fill="white" stroke="#263238" stroke-linecap="round" stroke-linejoin="round"/>
<path d="M257 320.192C257 320.192 254.67 314.982 250.87 315.842C247.07 316.702 245.87 321.842 246.57 329.642C247.27 337.442 248.73 343.642 250.85 343.862C252.97 344.082 255.28 339.372 255.7 333.282C256.12 327.192 256.75 323.552 256.75 323.552" fill="white"/>
<path d="M257 320.192C257 320.192 254.67 314.982 250.87 315.842C247.07 316.702 245.87 321.842 246.57 329.642C247.27 337.442 248.73 343.642 250.85 343.862C252.97 344.082 255.28 339.372 255.7 333.282C256.12 327.192 256.75 323.552 256.75 323.552" stroke="#263238" stroke-linecap="round" stroke-linejoin="round"/>
<path d="M305.861 265.683H282.291V301.863H305.861V265.683Z" fill="#579540" stroke="#263238" stroke-linecap="round" stroke-linejoin="round"/>
<path d="M295.721 255.143H291.381V271.883H295.721V255.143Z" fill="white" stroke="#263238" stroke-linecap="round" stroke-linejoin="round"/>
<path d="M298.2 275.812H288.07V289.042H298.2V275.812Z" fill="white" stroke="#263238" stroke-linecap="round" stroke-linejoin="round"/>
<path d="M286.421 292.973H300.271" stroke="#263238" stroke-linecap="round" stroke-linejoin="round"/>
<path d="M284.351 295.862H302.131" stroke="#263238" stroke-linecap="round" stroke-linejoin="round"/>
<path d="M323.57 198.782C323.57 198.782 315.96 203.902 314.57 207.972C313.18 212.042 307.32 229.362 305.02 235.902C302.72 242.442 289.64 248.102 291.41 249.342C293.18 250.582 310.33 252.162 310.33 252.162C310.33 252.162 314.22 267.372 315.1 271.262C315.98 275.152 321.29 286.992 321.29 286.992C321.29 286.992 337.02 268.072 339.5 262.992C341.204 259.557 343.152 256.248 345.33 253.092C345.33 253.092 352.05 254.682 356.33 255.392C360.61 256.102 372.24 257.152 371.71 255.212C371.18 253.272 365.35 244.782 363.05 236.472C360.75 228.162 362.16 209.952 359.34 202.882C356.52 195.812 350.34 194.752 348.2 194.222C346.06 193.692 326.75 195.772 323.57 198.782Z" fill="#579540" stroke="#263238" stroke-linecap="round" stroke-linejoin="round"/>
<path d="M321.091 193.303C321.091 193.303 323.391 206.203 323.091 216.633C322.791 227.063 319.021 250.403 319.201 262.423C319.38 270.407 320.028 278.374 321.141 286.283C321.141 286.283 338.471 262.423 344.831 242.973C351.191 223.523 352.961 206.913 352.961 205.673C352.961 204.433 353.311 175.623 353.311 175.623C353.311 175.623 334.881 194.893 321.091 193.303Z" fill="white" stroke="#263238" stroke-linecap="round" stroke-linejoin="round"/>
<path d="M353.121 187.853C353.191 181.373 353.261 175.623 353.261 175.623C353.261 175.623 334.881 194.893 321.091 193.303C321.091 193.303 321.741 196.933 322.291 201.903C324.094 203.138 326.097 204.055 328.211 204.613C334.591 205.893 341.741 202.323 346.591 196.193C348.381 193.933 350.751 190.853 353.121 187.853Z" fill="#263238" stroke="#263238" stroke-linecap="round" stroke-linejoin="round"/>
<path d="M365.731 129.302C375.445 129.302 383.321 121.508 383.321 111.892C383.321 102.277 375.445 94.4824 365.731 94.4824C356.016 94.4824 348.141 102.277 348.141 111.892C348.141 121.508 356.016 129.302 365.731 129.302Z" fill="#263238" stroke="#263238" stroke-linecap="round" stroke-linejoin="round"/>
<path d="M294.5 142.313C294.5 142.313 285.06 139.753 283.5 134.653C281.94 129.553 287.59 111.653 305.97 102.483C324.35 93.3125 341.21 98.3925 348.61 100.433C356.01 102.473 361.38 106.313 366.23 119.843C371.08 133.373 371.33 143.843 369.8 148.943C368.891 151.992 367.782 154.978 366.48 157.883C366.48 157.883 357.04 158.883 354.48 155.073C351.92 151.263 352.95 132.073 341.97 127.503C330.99 122.933 310.06 125.503 304.97 130.053C299.88 134.603 294.5 142.313 294.5 142.313Z" fill="#263238" stroke="#263238" stroke-linecap="round" stroke-linejoin="round"/>
<path d="M292.971 138.993C292.971 138.993 295.271 153.543 295.271 161.453C295.271 169.363 301.651 180.353 304.971 183.453C308.291 186.553 319.271 196.983 325.651 198.263C332.031 199.543 339.181 195.963 344.031 189.833C348.881 183.703 358.331 171.453 358.331 171.453C360.438 171.687 362.561 171.178 364.332 170.013C366.103 168.848 367.412 167.1 368.031 165.073C370.591 157.663 369.311 149.243 364.971 148.223C360.631 147.203 357.571 152.303 357.571 152.303C357.571 152.303 353.991 138.523 349.401 131.623L342.761 121.623L351.231 111.033C351.323 110.918 351.391 110.785 351.43 110.642C351.47 110.5 351.479 110.351 351.458 110.205C351.438 110.059 351.388 109.918 351.31 109.792C351.233 109.666 351.131 109.558 351.011 109.473C350.783 109.309 350.501 109.24 350.224 109.279C349.946 109.318 349.694 109.463 349.521 109.683L341.231 120.353C341.231 120.353 324.891 117.543 310.591 124.693C296.291 131.843 292.971 138.993 292.971 138.993Z" fill="white" stroke="#263238" stroke-linecap="round" stroke-linejoin="round"/>
<path d="M345.431 153.362L343.131 156.432" stroke="#263238" stroke-linecap="round" stroke-linejoin="round"/>
<path d="M313.91 170.903C313.91 170.903 314.42 172.433 317.74 173.203C319.289 173.563 320.91 173.465 322.404 172.922C323.899 172.379 325.204 171.413 326.16 170.143" stroke="#263238" stroke-linecap="round" stroke-linejoin="round"/>
<path d="M317.751 179.112C320.899 179.823 324.178 179.702 327.265 178.762C330.352 177.822 333.142 176.096 335.361 173.752C335.361 173.752 333.071 183.452 328.471 185.242C323.871 187.032 323.621 182.172 323.621 182.172L317.751 179.112Z" stroke="#263238" stroke-linecap="round" stroke-linejoin="round"/>
<path d="M326.931 159.673C329.046 157.681 331.621 156.243 334.426 155.485C337.231 154.728 340.18 154.676 343.011 155.333" stroke="#263238" stroke-width="2" stroke-linecap="round" stroke-linejoin="round"/>
<path d="M310.331 159.163C310.331 159.163 304.721 153.543 298.841 156.603" stroke="#263238" stroke-width="2" stroke-linecap="round" stroke-linejoin="round"/>
<path d="M297.061 155.333L299.861 158.143" stroke="#263238" stroke-linecap="round" stroke-linejoin="round"/>
<path d="M325.141 145.883C325.141 145.883 332.751 137.112 343.751 145.372" stroke="#263238" stroke-linecap="round" stroke-linejoin="round"/>
<path d="M309.82 145.623C309.82 145.623 302.93 140.263 296.03 146.393" stroke="#263238" stroke-linecap="round" stroke-linejoin="round"/>
<path d="M332.941 158.302C332.951 158.552 332.885 158.798 332.753 159.009C332.621 159.221 332.428 159.387 332.199 159.487C331.971 159.587 331.717 159.616 331.472 159.57C331.227 159.524 331.001 159.405 330.825 159.228C330.649 159.052 330.53 158.826 330.483 158.581C330.437 158.336 330.466 158.083 330.566 157.854C330.666 157.626 330.832 157.433 331.044 157.3C331.255 157.168 331.502 157.102 331.751 157.112C332.063 157.125 332.358 157.254 332.579 157.475C332.799 157.695 332.929 157.991 332.941 158.302Z" fill="#263238"/>
<path d="M303.75 157.232C303.752 157.478 303.681 157.719 303.546 157.924C303.411 158.129 303.218 158.29 302.992 158.385C302.766 158.481 302.516 158.507 302.275 158.46C302.034 158.413 301.812 158.296 301.637 158.123C301.463 157.95 301.344 157.729 301.295 157.488C301.246 157.247 301.27 156.997 301.364 156.77C301.457 156.543 301.616 156.349 301.821 156.212C302.025 156.075 302.265 156.002 302.51 156.002C302.838 156.002 303.152 156.132 303.384 156.362C303.616 156.592 303.748 156.905 303.75 157.232Z" fill="#263238"/>
<path d="M364.081 132.333C364.081 132.333 364.961 143.823 362.841 152.483L366.201 153.543C366.201 153.543 368.851 140.283 367.611 132.863L364.081 132.333Z" fill="#579540" stroke="#263238" stroke-linecap="round" stroke-linejoin="round"/>
<path d="M341.24 98.7227C344.937 100.567 348.231 103.126 350.933 106.252C353.635 109.378 355.69 113.008 356.98 116.933C361.04 130.013 360.51 134.083 362.98 135.493C365.45 136.903 370.23 137.793 370.4 134.613C370.57 131.433 369.47 117.243 362.4 108.443C357.1 101.743 345.66 98.9027 341.24 98.7227Z" fill="#579540" stroke="#263238" stroke-linecap="round" stroke-linejoin="round"/>
<path d="M365.48 149.952C360.39 148.392 354.8 151.952 352.98 157.862C351.3 163.332 353.44 168.912 357.78 170.972C354.594 179.069 349.855 186.464 343.83 192.742C342.658 192.598 341.473 192.898 340.51 193.582C338.69 194.812 337.89 196.822 338.74 198.082C339.59 199.342 341.74 199.362 343.57 198.142C345.4 196.922 346.05 195.142 345.47 193.922C351.631 187.493 356.463 179.911 359.69 171.612C364.55 172.612 369.69 169.132 371.4 163.502C373.22 157.582 370.57 151.512 365.48 149.952Z" fill="#579540" stroke="#263238" stroke-linecap="round" stroke-linejoin="round"/>
<path d="M369.801 161.512C368.941 165.292 365.531 167.752 362.181 166.992C358.831 166.232 356.811 162.542 357.671 158.762C358.531 154.982 361.941 152.522 365.291 153.272C368.641 154.022 370.661 157.722 369.801 161.512Z" fill="#579540" stroke="#263238" stroke-linecap="round" stroke-linejoin="round"/>
<path d="M368.82 223.883C368.82 223.883 363.87 211.513 362.82 209.213C361.77 206.913 370.42 193.303 371.82 191.353C373.22 189.403 375.88 185.353 375.88 184.463C375.88 183.573 365.81 173.673 363.68 172.083C361.55 170.493 358.03 174.083 358.03 174.083C358.03 174.083 348.84 186.283 348.84 187.693C348.84 189.103 353.25 193.523 353.25 193.523C353.25 193.523 346.36 203.423 347.25 207.313C348.14 211.203 351.67 214.563 351.67 214.563L356.62 233.653L368.82 223.883Z" fill="white" stroke="#263238" stroke-linecap="round" stroke-linejoin="round"/>
<path d="M353.261 193.473C353.261 193.473 359.261 188.703 358.741 187.293C358.535 186.874 358.204 186.53 357.793 186.308C357.383 186.085 356.914 185.996 356.451 186.053" stroke="#263238" stroke-linecap="round" stroke-linejoin="round"/>
<path d="M357.511 175.623C358.041 175.623 373.591 185.873 373.241 187.623C372.932 188.915 372.458 190.161 371.831 191.333" stroke="#263238" stroke-linecap="round" stroke-linejoin="round"/>
<path d="M359.28 174.032C359.28 174.032 373.95 183.222 374.28 184.812C374.346 185.335 374.284 185.865 374.099 186.358C373.915 186.851 373.613 187.292 373.22 187.642" stroke="#263238" stroke-linecap="round" stroke-linejoin="round"/>
<path d="M360.87 172.442C360.87 172.442 376.25 182.872 375.87 184.442C375.449 185.729 374.791 186.927 373.93 187.972" stroke="#263238" stroke-linecap="round" stroke-linejoin="round"/>
<path d="M370.941 222.473L347.251 236.113C347.251 236.113 378.011 309.293 383.671 319.193C389.331 329.093 404.531 331.393 412.491 328.743C420.451 326.093 424.331 310.183 421.681 303.463C419.031 296.743 399.931 267.373 390.751 252.693C381.571 238.013 370.941 222.473 370.941 222.473Z" fill="#263238" stroke="#263238" stroke-linecap="round" stroke-linejoin="round"/>
<path d="M358.421 261.112C358.421 261.112 384.421 311.112 391.081 321.112" stroke="#616161" stroke-linecap="round" stroke-linejoin="round"/>
<path d="M373.081 228.402L409.751 284.402" stroke="#616161" stroke-linecap="round" stroke-linejoin="round"/>
<path d="M269.1 155.973V123.783C269.1 122.541 268.607 121.351 267.73 120.473C266.852 119.596 265.662 119.103 264.42 119.103H185.91C184.669 119.103 183.479 119.596 182.601 120.473C181.724 121.351 181.23 122.541 181.23 123.783V155.973C181.23 157.214 181.724 158.404 182.601 159.282C183.479 160.159 184.669 160.653 185.91 160.653H253.33L268.68 175.423L265.61 160.483C266.608 160.22 267.491 159.636 268.122 158.82C268.753 158.005 269.097 157.004 269.1 155.973Z" fill="white" stroke="#263238" stroke-linecap="round" stroke-linejoin="round"/>
<path d="M209.66 142.752C211.599 142.752 213.17 141.181 213.17 139.242C213.17 137.304 211.599 135.732 209.66 135.732C207.722 135.732 206.15 137.304 206.15 139.242C206.15 141.181 207.722 142.752 209.66 142.752Z" fill="#263238"/>
<path d="M225.16 142.752C227.099 142.752 228.67 141.181 228.67 139.242C228.67 137.304 227.099 135.732 225.16 135.732C223.222 135.732 221.65 137.304 221.65 139.242C221.65 141.181 223.222 142.752 225.16 142.752Z" fill="#263238"/>
<path d="M240.67 142.752C242.609 142.752 244.18 141.181 244.18 139.242C244.18 137.304 242.609 135.732 240.67 135.732C238.732 135.732 237.16 137.304 237.16 139.242C237.16 141.181 238.732 142.752 240.67 142.752Z" fill="#263238"/>
<path d="M193.98 155.232V148.032L186.41 146.352C185.998 144.89 185.417 143.481 184.68 142.152L188.83 135.612L183.75 130.522L177.21 134.682C175.889 133.939 174.482 133.358 173.02 132.952L171.33 125.382H164.13L162.45 132.952C160.985 133.356 159.575 133.937 158.25 134.682L151.75 130.522L146.66 135.612L150.75 142.112C150.005 143.437 149.424 144.847 149.02 146.312L141.45 147.992V155.192L149.02 156.882C149.423 158.357 150.003 159.778 150.75 161.112L146.59 167.652L151.68 172.742L158.22 168.582C159.546 169.327 160.956 169.911 162.42 170.322L164.1 177.882H171.3L172.99 170.322C174.45 169.909 175.857 169.325 177.18 168.582L183.72 172.742L188.81 167.652L184.68 161.112C185.416 159.787 185.996 158.381 186.41 156.922L193.98 155.232ZM167.75 160.932C165.911 160.932 164.113 160.387 162.583 159.365C161.054 158.343 159.862 156.891 159.158 155.191C158.454 153.492 158.27 151.622 158.629 149.818C158.988 148.014 159.873 146.357 161.174 145.056C162.475 143.756 164.132 142.87 165.936 142.511C167.74 142.152 169.61 142.336 171.309 143.04C173.009 143.744 174.461 144.936 175.483 146.466C176.505 147.995 177.05 149.793 177.05 151.632C177.05 152.854 176.81 154.063 176.342 155.191C175.875 156.32 175.19 157.345 174.326 158.208C173.463 159.072 172.437 159.757 171.309 160.224C170.181 160.692 168.971 160.932 167.75 160.932Z" fill="#263238" stroke="#263238" stroke-linecap="round" stroke-linejoin="round"/>
<path d="M130.52 344.353H295.92V337.683H130.52V344.353Z" fill="white" stroke="#263238" stroke-linecap="round" stroke-linejoin="round"/>
<path d="M105.12 344.353H249.28V337.683H105.12V344.353Z" fill="white" stroke="#263238" stroke-linecap="round" stroke-linejoin="round"/>
<path d="M102.33 325.812H240.25L225.38 220.522H87.46L102.33 325.812Z" fill="white" stroke="#263238" stroke-linecap="round" stroke-linejoin="round"/>
<path d="M96.62 325.812H234.54L219.67 220.522H81.75L96.62 325.812Z" fill="#263238" stroke="#263238" stroke-linecap="round" stroke-linejoin="round"/>
<path d="M138.88 276.873L125.04 344.353H160.63L174.47 276.873H138.88ZM163.02 296.873C162.962 297.156 162.808 297.41 162.584 297.592C162.36 297.775 162.079 297.874 161.79 297.873L141.63 297.673C141.441 297.67 141.255 297.625 141.086 297.541C140.917 297.458 140.769 297.337 140.653 297.188C140.537 297.039 140.456 296.866 140.415 296.682C140.375 296.497 140.377 296.306 140.42 296.123L142.24 288.553C142.298 288.269 142.452 288.015 142.676 287.833C142.901 287.65 143.181 287.551 143.47 287.553L163.64 287.743C163.828 287.746 164.013 287.792 164.18 287.877C164.348 287.961 164.495 288.082 164.61 288.231C164.725 288.38 164.806 288.552 164.845 288.736C164.885 288.919 164.883 289.11 164.84 289.293L163.02 296.873Z" fill="white" stroke="#263238" stroke-linecap="round" stroke-linejoin="round"/>
<path d="M1 349.192L466.5 349.192V344.352L1 344.352V349.192Z" fill="#263238" stroke="#263238" stroke-linecap="round" stroke-linejoin="round"/>
<path d="M334.611 24.6423L331.671 16.1123H302.141L304.811 66.1123H373.471V24.6423H334.611Z" stroke="#263238" stroke-linecap="round" stroke-linejoin="round"/>
<path d="M373.47 66.1122L379.33 20.3022H332.83" stroke="#263238" stroke-linecap="round" stroke-linejoin="round"/>
<path d="M174.831 49.4163C179.188 30.839 167.66 12.2469 149.083 7.88963C130.506 3.53237 111.914 15.06 107.557 33.6373C103.199 52.2146 114.727 70.8067 133.304 75.1639C151.881 79.5212 170.474 67.9936 174.831 49.4163Z" stroke="#263238" stroke-linecap="round" stroke-linejoin="round"/>
<path d="M168.282 48.021C171.858 33.0671 162.635 18.0454 147.681 14.4691C132.727 10.8928 117.705 20.1161 114.129 35.07C110.552 50.024 119.776 65.0457 134.73 68.622C149.684 72.1983 164.705 62.9749 168.282 48.021Z" stroke="#263238" stroke-linecap="round" stroke-linejoin="round"/>
<path d="M144.891 41.5323C144.891 42.2621 144.674 42.9755 144.269 43.5823C143.863 44.1892 143.287 44.6621 142.613 44.9414C141.939 45.2207 141.197 45.2938 140.481 45.1514C139.765 45.009 139.108 44.6576 138.592 44.1415C138.075 43.6254 137.724 42.968 137.582 42.2522C137.439 41.5364 137.512 40.7944 137.792 40.1202C138.071 39.4459 138.544 38.8696 139.151 38.4642C139.758 38.0587 140.471 37.8423 141.201 37.8423C142.179 37.8423 143.118 38.231 143.81 38.9231C144.502 39.6151 144.891 40.5536 144.891 41.5323V41.5323Z" stroke="#263238" stroke-linecap="round" stroke-linejoin="round"/>
<path d="M141.091 15.7822V22.6722" stroke="#263238" stroke-linecap="round" stroke-linejoin="round"/>
<path d="M141.091 60.5322V67.4122" stroke="#263238" stroke-linecap="round" stroke-linejoin="round"/>
<path d="M122.841 23.3423L127.701 28.2123" stroke="#263238" stroke-linecap="round" stroke-linejoin="round"/>
<path d="M154.48 54.9824L159.34 59.8524" stroke="#263238" stroke-linecap="round" stroke-linejoin="round"/>
<path d="M115.28 41.6025H122.16" stroke="#263238" stroke-linecap="round" stroke-linejoin="round"/>
<path d="M160.021 41.6025H166.9" stroke="#263238" stroke-linecap="round" stroke-linejoin="round"/>
<path d="M122.841 59.8524L127.701 54.9824" stroke="#263238" stroke-linecap="round" stroke-linejoin="round"/>
<path d="M154.48 28.2123L159.34 23.3423" stroke="#263238" stroke-linecap="round" stroke-linejoin="round"/>
<path d="M137.51 41.5322H127.32" stroke="#263238" stroke-linecap="round" stroke-linejoin="round"/>
<path d="M141.2 37.8426V24.3926" stroke="#263238" stroke-linecap="round" stroke-linejoin="round"/>
<path d="M276.83 16.1123H197.5V66.7823H276.83V16.1123Z" stroke="#263238" stroke-linecap="round" stroke-linejoin="round"/>
<path d="M197.5 16.1123L237.16 41.4423L276.83 16.1123" stroke="#263238" stroke-linecap="round" stroke-linejoin="round"/>
<path d="M197.5 66.7824L227.5 39.4424" stroke="#263238" stroke-linecap="round" stroke-linejoin="round"/>
<path d="M276.45 66.7824L246.45 39.4424" stroke="#263238" stroke-linecap="round" stroke-linejoin="round"/>
</svg>
